<?xml version="1.0" standalone="no"?>
<!DOCTYPE svg PUBLIC "-//W3C//DTD SVG 20010904//EN"
 "http://www.w3.org/TR/2001/REC-SVG-20010904/DTD/svg10.dtd">
<svg version="1.0" xmlns="http://www.w3.org/2000/svg"
 width="512.000000pt" height="512.000000pt" viewBox="0 0 512.000000 512.000000"
 preserveAspectRatio="xMidYMid meet">
<metadata>
Created by potrace 1.11, written by Peter Selinger 2001-2013
</metadata>
<g transform="translate(0.000000,512.000000) scale(0.100000,-0.100000)"
fill="#000000" stroke="none">
<path d="M2885 4276 c-22 -7 -172 -79 -333 -160 -317 -159 -355 -185 -403
-281 l-24 -50 0 -750 0 -750 29 -62 c52 -114 91 -141 475 -333 188 -93 349
-170 357 -170 18 0 17 -44 15 855 -2 823 -4 800 52 819 23 9 46 0 174 -65 96
-48 154 -84 168 -102 20 -28 20 -45 25 -815 l5 -787 34 -69 c37 -76 66 -98
276 -213 126 -69 555 -293 561 -293 2 0 3 564 2 1253 l-3 1252 -28 57 c-53
108 -86 129 -614 396 -265 133 -507 251 -539 262 -66 23 -168 25 -229 6z"/>
<path d="M830 2847 c0 -1330 -2 -1277 54 -1366 50 -79 96 -106 632 -374 l525
-262 97 0 98 0 391 194 c216 107 390 199 386 204 -3 5 -252 132 -554 282 -302
151 -569 288 -594 306 -50 36 -105 111 -132 179 -16 41 -18 109 -23 765 -5
646 -7 724 -22 763 -26 65 -73 126 -125 165 -45 32 -661 346 -710 361 l-23 7
0 -1224z"/>
</g>
</svg>
